:FULLY-SPECIFIED
:FORCE-ALL-JOINTS-BE-3DOF
:DEGREES
2242
root -0.696221 13.7736 -16.7525 -169.08 -27.2904 168.498
lfemur 11.5908 -1.47842 -15.3467
ltibia 34.7604 -0 0
lfoot -24.7971 37.1855 0.126446
ltoes -44.3918 0 0
rfemur -72.3948 -23.7147 8.38418
rtibia 73.2385 -0 0
rfoot -5.11978 14.5893 -0.102779
rtoes 4.11766 -0 0
lowerback 9.61829 1.86551 -14.0421
upperback -2.80323 0.307637 -2.07078
thorax -8.6342 0.740278 5.60906
lowerneck 1.19427 -12.3022 -12.5787
upperneck 4.77441 -17.1696 10.7346
head 3.21397 -8.62827 4.4972
lclavicle 8.94362e-15 2.80368e-14 5.61484e-31
lhumerus -72.1177 -18.4673 104.218
lradius 104.106 -0 0
lwrist 63.1844 0 0
lhand -10.4603 60.695 -0.0682576
lfingers 7.12502 -0 0
lthumb 14.8142 116.952 -0.0611175
rclavicle 8.94362e-15 2.80368e-14 5.61484e-31
rhumerus 50.5066 -10.6059 -59.3669
rradius 15.0168 -0 0
rwrist 36.3923 0 0
rhand -19.8595 -42.9237 -0.0127591
rfingers 7.12502 -0 0
rthumb 6.47551 -72.8058 -0.0125692
2243
root -0.704629 13.7724 -16.7335 -168.886 -27.1134 168.458
lfemur 11.6098 -1.45393 -15.4167
ltibia 34.2382 -0 0
lfoot -24.5264 37.1536 0.105319
ltoes -44.5089 0 0
rfemur -72.4836 -23.7315 8.46718
rtibia 73.4853 -0 0
rfoot -5.42949 14.5982 -0.087322
rtoes 4.16552 -0 0
lowerback 9.52528 1.87278 -14.0442
upperback -2.84769 0.325842 -2.09109
thorax -8.63267 0.749825 5.58376
lowerneck 1.14933 -12.2803 -12.5345
upperneck 4.74392 -17.1274 10.7012
head 3.20406 -8.60524 4.48341
lclavicle 9.40318e-15 2.81745e-14 5.95944e-31
lhumerus -71.6944 -18.4248 104.172
lradius 103.763 -0 0
lwrist 62.8271 0 0
lhand -10.5818 60.6184 -0.0568031
lfingers 7.12502 -0 0
lthumb 14.8747 113.601 -0.0708152
rclavicle 9.40318e-15 2.81745e-14 5.95944e-31
rhumerus 50.2902 -10.4668 -59.3082
rradius 15.3285 -0 0
rwrist 36.0422 0 0
rhand -19.8654 -42.8824 -0.0106931
rfingers 7.12502 -0 0
rthumb 6.46983 -72.7645 -0.0105315
2244
root -0.712629 13.771 -16.7168 -168.702 -26.9441 168.421
lfemur 11.6357 -1.42888 -15.4816
ltibia 33.7373 -0 0
lfoot -24.2688 37.1235 0.0856226
ltoes -44.6248 0 0
rfemur -72.5734 -23.7483 8.54889
rtibia 73.7261 -0 0
rfoot -5.72573 14.6065 -0.0726713
rtoes 4.21444 -0 0
lowerback 9.43739 1.88046 -14.0462
upperback -2.88958 0.344162 -2.11023
thorax -8.63132 0.759404 5.55969
lowerneck 1.10636 -12.2593 -12.4921
upperneck 4.71461 -17.0871 10.6688
head 3.19443 -8.5832 4.47006
lclavicle 9.79252e-15 2.82801e-14 6.13798e-31
lhumerus -71.2972 -18.3868 104.131
lradius 103.44 -0 0
lwrist 62.4993 0 0
lhand -10.7066 60.5455 -0.046137
lfingers 7.12502 -0 0
lthumb 14.915 110.372 -0.0729075
rclavicle 9.79252e-15 2.82801e-14 6.13798e-31
rhumerus 50.0881 -10.3357 -59.2496
rradius 15.6224 -0 0
rwrist 35.7108 0 0
rhand -19.8707 -42.8429 -0.00874691
rfingers 7.12502 -0 0
rthumb 6.46472 -72.725 -0.00861233
2245
root -0.720159 13.7694 -16.7027 -168.528 -26.784 168.387
lfemur 11.6701 -1.4036 -15.5413
ltibia 33.2595 -0 0
lfoot -24.0262 37.0959 0.0675324
ltoes -44.7399 0 0
rfemur -72.6655 -23.7656 8.62907
rtibia 73.9607 -0 0
rfoot -6.00689 14.6145 -0.0589631
rtoes 4.26502 -0 0
lowerback 9.35502 1.88858 -14.0482
upperback -2.92869 0.362551 -2.1282
thorax -8.63013 0.768997 5.53699
lowerneck 1.06564 -12.2396 -12.4518
upperneck 4.68653 -17.0489 10.6376
head 3.1851 -8.56234 4.45724
lclavicle 1.01072e-14 2.83524e-14 6.13498e-31
lhumerus -70.9302 -18.3542 104.096
lradius 103.141 -0 0
lwrist 62.2055 0 0
lhand -10.8343 60.477 -0.0363563
lfingers 7.12502 -0 0
lthumb 14.933 107.271 -0.0688947
rclavicle 1.01072e-14 2.83524e-14 6.13498e-31
rhumerus 49.9026 -10.2145 -59.1913
rradius 15.8957 -0 0
rwrist 35.4012 0 0
rhand -19.8755 -42.8057 -0.00694169
rfingers 7.12502 -0 0
rthumb 6.4601 -72.6876 -0.00683238
